<?xml version="1.0" encoding="utf-8" standalone="no"?>
<!DOCTYPE svg PUBLIC "-//W3C//DTD SVG 1.1//EN"
  "http://www.w3.org/Graphics/SVG/1.1/DTD/svg11.dtd">
<svg xmlns:xlink="http://www.w3.org/1999/xlink" width="499.871875pt" height="340.673437pt" viewBox="0 0 499.871875 340.673437" xmlns="http://www.w3.org/2000/svg" version="1.1">
 <metadata>
  <rdf:RDF xmlns:dc="http://purl.org/dc/elements/1.1/" xmlns:cc="http://creativecommons.org/ns#" xmlns:rdf="http://www.w3.org/1999/02/22-rdf-syntax-ns#">
   <cc:Work>
    <dc:type rdf:resource="http://purl.org/dc/dcmitype/StillImage"/>
    <dc:date>2023-10-31T15:07:40.907401</dc:date>
    <dc:format>image/svg+xml</dc:format>
    <dc:creator>
     <cc:Agent>
      <dc:title>Matplotlib v3.5.2, https://matplotlib.org/</dc:title>
     </cc:Agent>
    </dc:creator>
   </cc:Work>
  </rdf:RDF>
 </metadata>
 <defs>
  <style type="text/css">*{stroke-linejoin: round; stroke-linecap: butt}</style>
 </defs>
 <g id="figure_1">
  <g id="patch_1">
   <path d="M 0 340.673437 
L 499.871875 340.673437 
L 499.871875 0 
L 0 0 
z
" style="fill: #ffffff"/>
  </g>
  <g id="axes_1">
   <g id="patch_2">
    <path d="M 46.271875 284.4 
L 235.224256 284.4 
L 235.224256 239.976923 
L 46.271875 239.976923 
z
" style="fill: #ffffff"/>
   </g>
   <g id="patch_3">
    <path d="M 46.899624 282.69142 
L 58.199102 282.69142 
L 58.199102 243.394083 
L 46.899624 243.394083 
z
" clip-path="url(#p31b2e97d16)" style="fill: #f08080"/>
   </g>
   <g id="patch_4">
    <path d="M 59.454599 282.69142 
L 70.754077 282.69142 
L 70.754077 243.394083 
L 59.454599 243.394083 
z
" clip-path="url(#p31b2e97d16)" style="fill: #ff0000"/>
   </g>
   <g id="patch_5">
    <path d="M 72.009575 282.69142 
L 83.309053 282.69142 
L 83.309053 243.394083 
L 72.009575 243.394083 
z
" clip-path="url(#p31b2e97d16)" style="fill: #ff4500"/>
   </g>
   <g id="patch_6">
    <path d="M 84.56455 282.69142 
L 95.864028 282.69142 
L 95.864028 243.394083 
L 84.56455 243.394083 
z
" clip-path="url(#p31b2e97d16)" style="fill: #ff8c00"/>
   </g>
   <g id="patch_7">
    <path d="M 97.119526 282.69142 
L 108.419004 282.69142 
L 108.419004 243.394083 
L 97.119526 243.394083 
z
" clip-path="url(#p31b2e97d16)" style="fill: #ffd700"/>
   </g>
   <g id="patch_8">
    <path d="M 109.674501 282.69142 
L 120.973979 282.69142 
L 120.973979 243.394083 
L 109.674501 243.394083 
z
" clip-path="url(#p31b2e97d16)" style="fill: #9acd32"/>
   </g>
   <g id="patch_9">
    <path d="M 122.229477 282.69142 
L 133.528955 282.69142 
L 133.528955 243.394083 
L 122.229477 243.394083 
z
" clip-path="url(#p31b2e97d16)" style="fill: #006400"/>
   </g>
   <g id="patch_10">
    <path d="M 134.784452 282.69142 
L 146.08393 282.69142 
L 146.08393 243.394083 
L 134.784452 243.394083 
z
" clip-path="url(#p31b2e97d16)" style="fill: #20b2aa"/>
   </g>
   <g id="patch_11">
    <path d="M 147.339428 282.69142 
L 158.638906 282.69142 
L 158.638906 243.394083 
L 147.339428 243.394083 
z
" clip-path="url(#p31b2e97d16)" style="fill: #00ffff"/>
   </g>
   <g id="patch_12">
    <path d="M 159.894403 282.69142 
L 171.193881 282.69142 
L 171.193881 243.394083 
L 159.894403 243.394083 
z
" clip-path="url(#p31b2e97d16)" style="fill: #4169e1"/>
   </g>
   <g id="patch_13">
    <path d="M 172.449379 282.69142 
L 183.748856 282.69142 
L 183.748856 243.394083 
L 172.449379 243.394083 
z
" clip-path="url(#p31b2e97d16)" style="fill: #6a5acd"/>
   </g>
   <g id="patch_14">
    <path d="M 185.004354 282.69142 
L 196.303832 282.69142 
L 196.303832 243.394083 
L 185.004354 243.394083 
z
" clip-path="url(#p31b2e97d16)" style="fill: #8a2be2"/>
   </g>
   <g id="patch_15">
    <path d="M 197.55933 282.69142 
L 208.858807 282.69142 
L 208.858807 243.394083 
L 197.55933 243.394083 
z
" clip-path="url(#p31b2e97d16)" style="fill: #800080"/>
   </g>
   <g id="patch_16">
    <path d="M 210.114305 282.69142 
L 221.413783 282.69142 
L 221.413783 243.394083 
L 210.114305 243.394083 
z
" clip-path="url(#p31b2e97d16)" style="fill: #ff00ff"/>
   </g>
   <g id="patch_17">
    <path d="M 222.66928 282.69142 
L 233.968758 282.69142 
L 233.968758 243.394083 
L 222.66928 243.394083 
z
" clip-path="url(#p31b2e97d16)" style="fill: #ff69b4"/>
   </g>
   <g id="matplotlib.axis_1">
    <g id="xtick_1">
     <g id="text_1">
      <text style="font: 10px 'arial'" transform="translate(55.134519 333.473437)rotate(-90)">MGH1002</text>
     </g>
    </g>
    <g id="xtick_2">
     <g id="text_2">
      <text style="font: 10px 'arial'" transform="translate(67.689494 333.473437)rotate(-90)">MGH1035</text>
     </g>
    </g>
    <g id="xtick_3">
     <g id="text_3">
      <text style="font: 10px 'arial'" transform="translate(80.24447 333.473437)rotate(-90)">MGH1078</text>
     </g>
    </g>
    <g id="xtick_4">
     <g id="text_4">
      <text style="font: 10px 'arial'" transform="translate(92.799445 331.998437)rotate(-90)">MGH1113</text>
     </g>
    </g>
    <g id="xtick_5">
     <g id="text_5">
      <text style="font: 10px 'arial'" transform="translate(105.354421 333.473437)rotate(-90)">MGH1326</text>
     </g>
    </g>
    <g id="xtick_6">
     <g id="text_6">
      <text style="font: 10px 'arial'" transform="translate(117.909396 333.473437)rotate(-90)">MGH1534</text>
     </g>
    </g>
    <g id="xtick_7">
     <g id="text_7">
      <text style="font: 10px 'arial'" transform="translate(130.464372 333.473437)rotate(-90)">MGH1558</text>
     </g>
    </g>
    <g id="xtick_8">
     <g id="text_8">
      <text style="font: 10px 'arial'" transform="translate(143.019347 333.473437)rotate(-90)">MGH1644</text>
     </g>
    </g>
    <g id="xtick_9">
     <g id="text_9">
      <text style="font: 10px 'arial'" transform="translate(155.574323 333.473437)rotate(-90)">MGH2389</text>
     </g>
    </g>
    <g id="xtick_10">
     <g id="text_10">
      <text style="font: 10px 'arial'" transform="translate(168.129298 333.473437)rotate(-90)">MGH2542</text>
     </g>
    </g>
    <g id="xtick_11">
     <g id="text_11">
      <text style="font: 10px 'arial'" transform="translate(180.684274 333.473437)rotate(-90)">MGH1598</text>
     </g>
    </g>
    <g id="xtick_12">
     <g id="text_12">
      <text style="font: 10px 'arial'" transform="translate(193.239249 333.473437)rotate(-90)">MGH2974</text>
     </g>
    </g>
    <g id="xtick_13">
     <g id="text_13">
      <text style="font: 10px 'arial'" transform="translate(205.794225 333.473437)rotate(-90)">MGH1045</text>
     </g>
    </g>
    <g id="xtick_14">
     <g id="text_14">
      <text style="font: 10px 'arial'" transform="translate(218.3492 333.473437)rotate(-90)">MGH1547</text>
     </g>
    </g>
    <g id="xtick_15">
     <g id="text_15">
      <text style="font: 10px 'arial'" transform="translate(230.904176 333.473437)rotate(-90)">MGH2819</text>
     </g>
    </g>
   </g>
   <g id="matplotlib.axis_2">
    <g id="ytick_1">
     <g id="line2d_1"/>
     <g id="text_16">
      <text style="font: 10px 'arial'; text-anchor: end" x="42.771875" y="266.621658" transform="rotate(-0, 42.771875, 266.621658)">Patient</text>
     </g>
    </g>
   </g>
  </g>
  <g id="axes_2">
   <g id="patch_18">
    <path d="M 46.271875 229.315385 
L 235.224256 229.315385 
L 235.224256 7.2 
L 46.271875 7.2 
z
" style="fill: #ffffff"/>
   </g>
   <g id="patch_19">
    <path d="M 46.899624 227.552564 
L 58.199102 227.552564 
L 58.199102 187.007692 
L 46.899624 187.007692 
z
" clip-path="url(#pf230df2dec)" style="fill: #808080; opacity: 0.2"/>
   </g>
   <g id="patch_20">
    <path d="M 59.454599 227.552564 
L 70.754077 227.552564 
L 70.754077 187.007692 
L 59.454599 187.007692 
z
" clip-path="url(#pf230df2dec)" style="fill: #808080; opacity: 0.2"/>
   </g>
   <g id="patch_21">
    <path d="M 72.009575 227.552564 
L 83.309053 227.552564 
L 83.309053 187.007692 
L 72.009575 187.007692 
z
" clip-path="url(#pf230df2dec)" style="fill: #808080; opacity: 0.2"/>
   </g>
   <g id="patch_22">
    <path d="M 84.56455 227.552564 
L 95.864028 227.552564 
L 95.864028 187.007692 
L 84.56455 187.007692 
z
" clip-path="url(#pf230df2dec)" style="fill: #808080; opacity: 0.2"/>
   </g>
   <g id="patch_23">
    <path d="M 97.119526 226.230449 
L 97.119526 187.007692 
L 108.042354 187.007692 
z
" clip-path="url(#pf230df2dec)" style="fill: #2dbe3d"/>
   </g>
   <g id="patch_24">
    <path d="M 97.496175 227.552564 
L 108.419004 227.552564 
L 108.419004 188.329808 
z
" clip-path="url(#pf230df2dec)" style="fill: #2dbe3d"/>
   </g>
   <g id="patch_25">
    <path d="M 109.674501 227.552564 
L 120.973979 227.552564 
L 120.973979 187.007692 
L 109.674501 187.007692 
z
" clip-path="url(#pf230df2dec)" style="fill: #808080; opacity: 0.2"/>
   </g>
   <g id="patch_26">
    <path d="M 122.229477 226.230449 
L 122.229477 187.007692 
L 133.152305 187.007692 
z
" clip-path="url(#pf230df2dec)" style="fill: #2dbe3d"/>
   </g>
   <g id="patch_27">
    <path d="M 122.606126 227.552564 
L 133.528955 227.552564 
L 133.528955 188.329808 
z
" clip-path="url(#pf230df2dec)" style="fill: #2dbe3d"/>
   </g>
   <g id="patch_28">
    <path d="M 134.784452 227.552564 
L 146.08393 227.552564 
L 146.08393 187.007692 
L 134.784452 187.007692 
z
" clip-path="url(#pf230df2dec)" style="fill: #808080; opacity: 0.2"/>
   </g>
   <g id="patch_29">
    <path d="M 147.339428 227.552564 
L 158.638906 227.552564 
L 158.638906 187.007692 
L 147.339428 187.007692 
z
" clip-path="url(#pf230df2dec)" style="fill: #a65628"/>
   </g>
   <g id="patch_30">
    <path d="M 159.894403 227.552564 
L 171.193881 227.552564 
L 171.193881 187.007692 
L 159.894403 187.007692 
z
" clip-path="url(#pf230df2dec)" style="fill: #a65628"/>
   </g>
   <g id="patch_31">
    <path d="M 172.449379 227.552564 
L 183.748856 227.552564 
L 183.748856 187.007692 
L 172.449379 187.007692 
z
" clip-path="url(#pf230df2dec)" style="fill: #808080; opacity: 0.2"/>
   </g>
   <g id="patch_32">
    <path d="M 185.004354 227.552564 
L 196.303832 227.552564 
L 196.303832 187.007692 
L 185.004354 187.007692 
z
" clip-path="url(#pf230df2dec)" style="fill: #808080; opacity: 0.2"/>
   </g>
   <g id="patch_33">
    <path d="M 197.55933 227.552564 
L 208.858807 227.552564 
L 208.858807 187.007692 
L 197.55933 187.007692 
z
" clip-path="url(#pf230df2dec)" style="fill: #808080; opacity: 0.2"/>
   </g>
   <g id="patch_34">
    <path d="M 210.114305 227.552564 
L 221.413783 227.552564 
L 221.413783 187.007692 
L 210.114305 187.007692 
z
" clip-path="url(#pf230df2dec)" style="fill: #a65628"/>
   </g>
   <g id="patch_35">
    <path d="M 222.66928 227.552564 
L 233.968758 227.552564 
L 233.968758 187.007692 
L 222.66928 187.007692 
z
" clip-path="url(#pf230df2dec)" style="fill: #808080; opacity: 0.2"/>
   </g>
   <g id="patch_36">
    <path d="M 46.899624 183.482051 
L 58.199102 183.482051 
L 58.199102 142.937179 
L 46.899624 142.937179 
z
" clip-path="url(#pf230df2dec)"/>
   </g>
   <g id="patch_37">
    <path d="M 59.454599 183.482051 
L 70.754077 183.482051 
L 70.754077 142.937179 
L 59.454599 142.937179 
z
" clip-path="url(#pf230df2dec)" style="fill: #808080; opacity: 0.2"/>
   </g>
   <g id="patch_38">
    <path d="M 72.009575 183.482051 
L 83.309053 183.482051 
L 83.309053 142.937179 
L 72.009575 142.937179 
z
" clip-path="url(#pf230df2dec)" style="fill: #808080; opacity: 0.2"/>
   </g>
   <g id="patch_39">
    <path d="M 84.56455 183.482051 
L 95.864028 183.482051 
L 95.864028 142.937179 
L 84.56455 142.937179 
z
" clip-path="url(#pf230df2dec)" style="fill: #808080; opacity: 0.2"/>
   </g>
   <g id="patch_40">
    <path d="M 97.119526 183.482051 
L 108.419004 183.482051 
L 108.419004 142.937179 
L 97.119526 142.937179 
z
" clip-path="url(#pf230df2dec)" style="fill: #808080; opacity: 0.2"/>
   </g>
   <g id="patch_41">
    <path d="M 109.674501 183.482051 
L 120.973979 183.482051 
L 120.973979 142.937179 
L 109.674501 142.937179 
z
" clip-path="url(#pf230df2dec)" style="fill: #808080; opacity: 0.2"/>
   </g>
   <g id="patch_42">
    <path d="M 122.229477 183.482051 
L 133.528955 183.482051 
L 133.528955 142.937179 
L 122.229477 142.937179 
z
" clip-path="url(#pf230df2dec)" style="fill: #808080; opacity: 0.2"/>
   </g>
   <g id="patch_43">
    <path d="M 134.784452 183.482051 
L 146.08393 183.482051 
L 146.08393 142.937179 
L 134.784452 142.937179 
z
" clip-path="url(#pf230df2dec)" style="fill: #808080; opacity: 0.2"/>
   </g>
   <g id="patch_44">
    <path d="M 147.339428 183.482051 
L 158.638906 183.482051 
L 158.638906 142.937179 
L 147.339428 142.937179 
z
" clip-path="url(#pf230df2dec)" style="fill: #808080; opacity: 0.2"/>
   </g>
   <g id="patch_45">
    <path d="M 159.894403 183.482051 
L 171.193881 183.482051 
L 171.193881 142.937179 
L 159.894403 142.937179 
z
" clip-path="url(#pf230df2dec)" style="fill: #808080; opacity: 0.2"/>
   </g>
   <g id="patch_46">
    <path d="M 172.449379 183.482051 
L 183.748856 183.482051 
L 183.748856 142.937179 
L 172.449379 142.937179 
z
" clip-path="url(#pf230df2dec)"/>
   </g>
   <g id="patch_47">
    <path d="M 185.004354 183.482051 
L 196.303832 183.482051 
L 196.303832 142.937179 
L 185.004354 142.937179 
z
" clip-path="url(#pf230df2dec)"/>
   </g>
   <g id="patch_48">
    <path d="M 197.55933 183.482051 
L 208.858807 183.482051 
L 208.858807 142.937179 
L 197.55933 142.937179 
z
" clip-path="url(#pf230df2dec)" style="fill: #808080; opacity: 0.2"/>
   </g>
   <g id="patch_49">
    <path d="M 210.114305 183.482051 
L 221.413783 183.482051 
L 221.413783 142.937179 
L 210.114305 142.937179 
z
" clip-path="url(#pf230df2dec)" style="fill: #808080; opacity: 0.2"/>
   </g>
   <g id="patch_50">
    <path d="M 222.66928 183.482051 
L 233.968758 183.482051 
L 233.968758 142.937179 
L 222.66928 142.937179 
z
" clip-path="url(#pf230df2dec)" style="fill: #808080; opacity: 0.2"/>
   </g>
   <g id="patch_51">
    <path d="M 46.899624 139.411538 
L 58.199102 139.411538 
L 58.199102 98.866667 
L 46.899624 98.866667 
z
" clip-path="url(#pf230df2dec)" style="fill: #a65628"/>
   </g>
   <g id="patch_52">
    <path d="M 59.454599 139.411538 
L 70.754077 139.411538 
L 70.754077 98.866667 
L 59.454599 98.866667 
z
" clip-path="url(#pf230df2dec)" style="fill: #808080; opacity: 0.2"/>
   </g>
   <g id="patch_53">
    <path d="M 72.009575 139.411538 
L 83.309053 139.411538 
L 83.309053 98.866667 
L 72.009575 98.866667 
z
" clip-path="url(#pf230df2dec)" style="fill: #808080; opacity: 0.2"/>
   </g>
   <g id="patch_54">
    <path d="M 84.56455 139.411538 
L 95.864028 139.411538 
L 95.864028 98.866667 
L 84.56455 98.866667 
z
" clip-path="url(#pf230df2dec)" style="fill: #808080; opacity: 0.2"/>
   </g>
   <g id="patch_55">
    <path d="M 97.119526 139.411538 
L 108.419004 139.411538 
L 108.419004 98.866667 
L 97.119526 98.866667 
z
" clip-path="url(#pf230df2dec)" style="fill: #808080; opacity: 0.2"/>
   </g>
   <g id="patch_56">
    <path d="M 109.674501 139.411538 
L 120.973979 139.411538 
L 120.973979 98.866667 
L 109.674501 98.866667 
z
" clip-path="url(#pf230df2dec)" style="fill: #808080; opacity: 0.2"/>
   </g>
   <g id="patch_57">
    <path d="M 122.229477 139.411538 
L 133.528955 139.411538 
L 133.528955 98.866667 
L 122.229477 98.866667 
z
" clip-path="url(#pf230df2dec)"/>
   </g>
   <g id="patch_58">
    <path d="M 134.784452 139.411538 
L 146.08393 139.411538 
L 146.08393 98.866667 
L 134.784452 98.866667 
z
" clip-path="url(#pf230df2dec)" style="fill: #808080; opacity: 0.2"/>
   </g>
   <g id="patch_59">
    <path d="M 147.339428 139.411538 
L 158.638906 139.411538 
L 158.638906 98.866667 
L 147.339428 98.866667 
z
" clip-path="url(#pf230df2dec)" style="fill: #808080; opacity: 0.2"/>
   </g>
   <g id="patch_60">
    <path d="M 159.894403 139.411538 
L 171.193881 139.411538 
L 171.193881 98.866667 
L 159.894403 98.866667 
z
" clip-path="url(#pf230df2dec)" style="fill: #808080; opacity: 0.2"/>
   </g>
   <g id="patch_61">
    <path d="M 172.449379 139.411538 
L 183.748856 139.411538 
L 183.748856 98.866667 
L 172.449379 98.866667 
z
" clip-path="url(#pf230df2dec)"/>
   </g>
   <g id="patch_62">
    <path d="M 185.004354 139.411538 
L 196.303832 139.411538 
L 196.303832 98.866667 
L 185.004354 98.866667 
z
" clip-path="url(#pf230df2dec)" style="fill: #808080; opacity: 0.2"/>
   </g>
   <g id="patch_63">
    <path d="M 197.55933 139.411538 
L 208.858807 139.411538 
L 208.858807 98.866667 
L 197.55933 98.866667 
z
" clip-path="url(#pf230df2dec)" style="fill: #2dbe3d"/>
   </g>
   <g id="patch_64">
    <path d="M 210.114305 139.411538 
L 221.413783 139.411538 
L 221.413783 98.866667 
L 210.114305 98.866667 
z
" clip-path="url(#pf230df2dec)" style="fill: #808080; opacity: 0.2"/>
   </g>
   <g id="patch_65">
    <path d="M 222.66928 139.411538 
L 233.968758 139.411538 
L 233.968758 98.866667 
L 222.66928 98.866667 
z
" clip-path="url(#pf230df2dec)" style="fill: #808080; opacity: 0.2"/>
   </g>
   <g id="patch_66">
    <path d="M 46.899624 94.01891 
L 46.899624 54.796154 
L 57.822452 54.796154 
z
" clip-path="url(#pf230df2dec)"/>
   </g>
   <g id="patch_67">
    <path d="M 47.276273 95.341026 
L 58.199102 95.341026 
L 58.199102 56.118269 
z
" clip-path="url(#pf230df2dec)"/>
   </g>
   <g id="patch_68">
    <path d="M 59.454599 95.341026 
L 70.754077 95.341026 
L 70.754077 54.796154 
L 59.454599 54.796154 
z
" clip-path="url(#pf230df2dec)" style="fill: #a65628"/>
   </g>
   <g id="patch_69">
    <path d="M 72.009575 95.341026 
L 83.309053 95.341026 
L 83.309053 54.796154 
L 72.009575 54.796154 
z
" clip-path="url(#pf230df2dec)" style="fill: #808080; opacity: 0.2"/>
   </g>
   <g id="patch_70">
    <path d="M 84.56455 95.341026 
L 95.864028 95.341026 
L 95.864028 54.796154 
L 84.56455 54.796154 
z
" clip-path="url(#pf230df2dec)"/>
   </g>
   <g id="patch_71">
    <path d="M 97.119526 95.341026 
L 108.419004 95.341026 
L 108.419004 54.796154 
L 97.119526 54.796154 
z
" clip-path="url(#pf230df2dec)"/>
   </g>
   <g id="patch_72">
    <path d="M 109.674501 95.341026 
L 120.973979 95.341026 
L 120.973979 54.796154 
L 109.674501 54.796154 
z
" clip-path="url(#pf230df2dec)" style="fill: #808080; opacity: 0.2"/>
   </g>
   <g id="patch_73">
    <path d="M 122.229477 95.341026 
L 133.528955 95.341026 
L 133.528955 54.796154 
L 122.229477 54.796154 
z
" clip-path="url(#pf230df2dec)"/>
   </g>
   <g id="patch_74">
    <path d="M 134.784452 94.01891 
L 134.784452 54.796154 
L 145.707281 54.796154 
z
" clip-path="url(#pf230df2dec)"/>
   </g>
   <g id="patch_75">
    <path d="M 135.161101 95.341026 
L 146.08393 95.341026 
L 146.08393 56.118269 
z
" clip-path="url(#pf230df2dec)"/>
   </g>
   <g id="patch_76">
    <path d="M 147.339428 95.341026 
L 158.638906 95.341026 
L 158.638906 54.796154 
L 147.339428 54.796154 
z
" clip-path="url(#pf230df2dec)" style="fill: #808080; opacity: 0.2"/>
   </g>
   <g id="patch_77">
    <path d="M 159.894403 95.341026 
L 171.193881 95.341026 
L 171.193881 54.796154 
L 159.894403 54.796154 
z
" clip-path="url(#pf230df2dec)" style="fill: #808080; opacity: 0.2"/>
   </g>
   <g id="patch_78">
    <path d="M 172.449379 95.341026 
L 183.748856 95.341026 
L 183.748856 54.796154 
L 172.449379 54.796154 
z
" clip-path="url(#pf230df2dec)" style="fill: #808080; opacity: 0.2"/>
   </g>
   <g id="patch_79">
    <path d="M 185.004354 95.341026 
L 196.303832 95.341026 
L 196.303832 54.796154 
L 185.004354 54.796154 
z
" clip-path="url(#pf230df2dec)" style="fill: #808080; opacity: 0.2"/>
   </g>
   <g id="patch_80">
    <path d="M 197.55933 95.341026 
L 208.858807 95.341026 
L 208.858807 54.796154 
L 197.55933 54.796154 
z
" clip-path="url(#pf230df2dec)" style="fill: #808080; opacity: 0.2"/>
   </g>
   <g id="patch_81">
    <path d="M 210.114305 95.341026 
L 221.413783 95.341026 
L 221.413783 54.796154 
L 210.114305 54.796154 
z
" clip-path="url(#pf230df2dec)" style="fill: #808080; opacity: 0.2"/>
   </g>
   <g id="patch_82">
    <path d="M 222.66928 95.341026 
L 233.968758 95.341026 
L 233.968758 54.796154 
L 222.66928 54.796154 
z
" clip-path="url(#pf230df2dec)" style="fill: #808080; opacity: 0.2"/>
   </g>
   <g id="patch_83">
    <path d="M 46.899624 51.270513 
L 58.199102 51.270513 
L 58.199102 10.725641 
L 46.899624 10.725641 
z
" clip-path="url(#pf230df2dec)" style="fill: #a65628"/>
   </g>
   <g id="patch_84">
    <path d="M 59.454599 49.948397 
L 59.454599 10.725641 
L 70.377428 10.725641 
z
" clip-path="url(#pf230df2dec)"/>
   </g>
   <g id="patch_85">
    <path d="M 59.831249 51.270513 
L 70.754077 51.270513 
L 70.754077 12.047756 
z
" clip-path="url(#pf230df2dec)"/>
   </g>
   <g id="patch_86">
    <path d="M 72.009575 51.270513 
L 83.309053 51.270513 
L 83.309053 10.725641 
L 72.009575 10.725641 
z
" clip-path="url(#pf230df2dec)"/>
   </g>
   <g id="patch_87">
    <path d="M 84.56455 51.270513 
L 95.864028 51.270513 
L 95.864028 10.725641 
L 84.56455 10.725641 
z
" clip-path="url(#pf230df2dec)"/>
   </g>
   <g id="patch_88">
    <path d="M 97.119526 49.948397 
L 97.119526 10.725641 
L 108.042354 10.725641 
z
" clip-path="url(#pf230df2dec)"/>
   </g>
   <g id="patch_89">
    <path d="M 97.496175 51.270513 
L 108.419004 51.270513 
L 108.419004 12.047756 
z
" clip-path="url(#pf230df2dec)"/>
   </g>
   <g id="patch_90">
    <path d="M 109.674501 51.270513 
L 120.973979 51.270513 
L 120.973979 10.725641 
L 109.674501 10.725641 
z
" clip-path="url(#pf230df2dec)"/>
   </g>
   <g id="patch_91">
    <path d="M 122.229477 49.948397 
L 122.229477 10.725641 
L 133.152305 10.725641 
z
" clip-path="url(#pf230df2dec)"/>
   </g>
   <g id="patch_92">
    <path d="M 122.606126 51.270513 
L 133.528955 51.270513 
L 133.528955 12.047756 
z
" clip-path="url(#pf230df2dec)"/>
   </g>
   <g id="patch_93">
    <path d="M 134.784452 51.270513 
L 146.08393 51.270513 
L 146.08393 10.725641 
L 134.784452 10.725641 
z
" clip-path="url(#pf230df2dec)"/>
   </g>
   <g id="patch_94">
    <path d="M 147.339428 51.270513 
L 158.638906 51.270513 
L 158.638906 10.725641 
L 147.339428 10.725641 
z
" clip-path="url(#pf230df2dec)"/>
   </g>
   <g id="patch_95">
    <path d="M 159.894403 51.270513 
L 171.193881 51.270513 
L 171.193881 10.725641 
L 159.894403 10.725641 
z
" clip-path="url(#pf230df2dec)" style="fill: #a65628"/>
   </g>
   <g id="patch_96">
    <path d="M 172.449379 51.270513 
L 183.748856 51.270513 
L 183.748856 10.725641 
L 172.449379 10.725641 
z
" clip-path="url(#pf230df2dec)" style="fill: #808080; opacity: 0.2"/>
   </g>
   <g id="patch_97">
    <path d="M 185.004354 51.270513 
L 196.303832 51.270513 
L 196.303832 10.725641 
L 185.004354 10.725641 
z
" clip-path="url(#pf230df2dec)" style="fill: #808080; opacity: 0.2"/>
   </g>
   <g id="patch_98">
    <path d="M 197.55933 51.270513 
L 208.858807 51.270513 
L 208.858807 10.725641 
L 197.55933 10.725641 
z
" clip-path="url(#pf230df2dec)" style="fill: #808080; opacity: 0.2"/>
   </g>
   <g id="patch_99">
    <path d="M 210.114305 51.270513 
L 221.413783 51.270513 
L 221.413783 10.725641 
L 210.114305 10.725641 
z
" clip-path="url(#pf230df2dec)" style="fill: #808080; opacity: 0.2"/>
   </g>
   <g id="patch_100">
    <path d="M 222.66928 51.270513 
L 233.968758 51.270513 
L 233.968758 10.725641 
L 222.66928 10.725641 
z
" clip-path="url(#pf230df2dec)" style="fill: #808080; opacity: 0.2"/>
   </g>
   <g id="matplotlib.axis_3">
    <g id="ytick_2">
     <g id="line2d_2"/>
     <g id="text_17">
      <text style="font: 10px 'arial'; text-anchor: end" x="42.771875" y="210.859034" transform="rotate(-0, 42.771875, 210.859034)">KMT2C</text>
     </g>
    </g>
    <g id="ytick_3">
     <g id="line2d_3"/>
     <g id="text_18">
      <text style="font: 10px 'arial'; text-anchor: end" x="42.771875" y="166.788522" transform="rotate(-0, 42.771875, 166.788522)">KRAS</text>
     </g>
    </g>
    <g id="ytick_4">
     <g id="line2d_4"/>
     <g id="text_19">
      <text style="font: 10px 'arial'; text-anchor: end" x="42.771875" y="122.718009" transform="rotate(-0, 42.771875, 122.718009)">TP53</text>
     </g>
    </g>
    <g id="ytick_5">
     <g id="line2d_5"/>
     <g id="text_20">
      <text style="font: 10px 'arial'; text-anchor: end" x="42.771875" y="78.647496" transform="rotate(-0, 42.771875, 78.647496)">ESR1</text>
     </g>
    </g>
    <g id="ytick_6">
     <g id="line2d_6"/>
     <g id="text_21">
      <text style="font: 10px 'arial'; text-anchor: end" x="42.771875" y="34.576983" transform="rotate(-0, 42.771875, 34.576983)">PIK3CA</text>
     </g>
    </g>
   </g>
   <g id="legend_1">
    <g id="text_22">
     <text style="font: 10px 'arial'; text-anchor: start" x="244.224256" y="23.357812" transform="rotate(-0, 244.224256, 23.357812)">Mutation type</text>
    </g>
    <g id="patch_101">
     <path d="M 244.224256 37.620312 
L 264.224256 37.620312 
L 264.224256 30.620312 
L 244.224256 30.620312 
z
" style="fill: #2dbe3d"/>
    </g>
    <g id="text_23">
     <text style="font: 10px 'arial'; text-anchor: start" x="272.224256" y="37.620312" transform="rotate(-0, 272.224256, 37.620312)">LOF</text>
    </g>
    <g id="patch_102">
     <path d="M 244.224256 51.765625 
L 264.224256 51.765625 
L 264.224256 44.765625 
L 244.224256 44.765625 
z
"/>
    </g>
    <g id="text_24">
     <text style="font: 10px 'arial'; text-anchor: start" x="272.224256" y="51.765625" transform="rotate(-0, 272.224256, 51.765625)">Missense_Mutation</text>
    </g>
    <g id="patch_103">
     <path d="M 244.224256 65.910937 
L 264.224256 65.910937 
L 264.224256 58.910937 
L 244.224256 58.910937 
z
" style="fill: #a65628"/>
    </g>
    <g id="text_25">
     <text style="font: 10px 'arial'; text-anchor: start" x="272.224256" y="65.910937" transform="rotate(-0, 272.224256, 65.910937)">Multiple</text>
    </g>
   </g>
  </g>
  <g id="axes_3">
   <g id="patch_104">
    <path d="M 256.481399 229.315385 
L 492.671875 229.315385 
L 492.671875 7.2 
L 256.481399 7.2 
z
" style="fill: #ffffff"/>
   </g>
   <g id="patch_105">
    <path d="M 256.481399 224.908333 
L 256.481399 224.908333 
L 256.481399 189.651923 
L 256.481399 189.651923 
z
" clip-path="url(#p5f2a456c7f)" style="fill: #a9a9a9; opacity: 0.5"/>
   </g>
   <g id="patch_106">
    <path d="M 256.481399 180.837821 
L 294.619897 180.837821 
L 294.619897 145.58141 
L 256.481399 145.58141 
z
" clip-path="url(#p5f2a456c7f)" style="fill: #a9a9a9; opacity: 0.5"/>
   </g>
   <g id="patch_107">
    <path d="M 256.481399 136.767308 
L 301.438763 136.767308 
L 301.438763 101.510897 
L 256.481399 101.510897 
z
" clip-path="url(#p5f2a456c7f)" style="fill: #a9a9a9; opacity: 0.5"/>
   </g>
   <g id="patch_108">
    <path d="M 256.481399 92.696795 
L 406.992736 92.696795 
L 406.992736 57.440385 
L 256.481399 57.440385 
z
" clip-path="url(#p5f2a456c7f)" style="fill: #a9a9a9; opacity: 0.5"/>
   </g>
   <g id="patch_109">
    <path d="M 256.481399 48.626282 
L 481.424709 48.626282 
L 481.424709 13.369872 
L 256.481399 13.369872 
z
" clip-path="url(#p5f2a456c7f)" style="fill: #a9a9a9; opacity: 0.5"/>
   </g>
   <g id="matplotlib.axis_4">
    <g id="xtick_16">
     <g id="line2d_7">
      <defs>
       <path id="m27a1aad2c7" d="M 0 0 
L 0 3.5 
" style="stroke: #000000; stroke-width: 0.8"/>
      </defs>
      <g>
       <use xlink:href="#m27a1aad2c7" x="256.481399" y="229.315385" style="stroke: #000000; stroke-width: 0.8"/>
      </g>
     </g>
     <g id="text_26">
      <text style="font: 10px 'arial'; text-anchor: middle" x="256.481399" y="243.473197" transform="rotate(-0, 256.481399, 243.473197)">0</text>
     </g>
    </g>
    <g id="xtick_17">
     <g id="line2d_8">
      <g>
       <use xlink:href="#m27a1aad2c7" x="321.64159" y="229.315385" style="stroke: #000000; stroke-width: 0.8"/>
      </g>
     </g>
     <g id="text_27">
      <text style="font: 10px 'arial'; text-anchor: middle" x="321.64159" y="243.473197" transform="rotate(-0, 321.64159, 243.473197)">2</text>
     </g>
    </g>
    <g id="xtick_18">
     <g id="line2d_9">
      <g>
       <use xlink:href="#m27a1aad2c7" x="386.80178" y="229.315385" style="stroke: #000000; stroke-width: 0.8"/>
      </g>
     </g>
     <g id="text_28">
      <text style="font: 10px 'arial'; text-anchor: middle" x="386.80178" y="243.473197" transform="rotate(-0, 386.80178, 243.473197)">4</text>
     </g>
    </g>
    <g id="xtick_19">
     <g id="line2d_10">
      <g>
       <use xlink:href="#m27a1aad2c7" x="451.961971" y="229.315385" style="stroke: #000000; stroke-width: 0.8"/>
      </g>
     </g>
     <g id="text_29">
      <text style="font: 10px 'arial'; text-anchor: middle" x="451.961971" y="243.473197" transform="rotate(-0, 451.961971, 243.473197)">6</text>
     </g>
    </g>
    <g id="text_30">
     <text style="font: 10px 'arial'; text-anchor: middle" x="374.576637" y="256.746635" transform="rotate(-0, 374.576637, 256.746635)">-log(Q)</text>
    </g>
   </g>
   <g id="matplotlib.axis_5">
    <g id="ytick_7">
     <g id="line2d_11"/>
    </g>
    <g id="ytick_8">
     <g id="line2d_12"/>
    </g>
    <g id="ytick_9">
     <g id="line2d_13"/>
    </g>
    <g id="ytick_10">
     <g id="line2d_14"/>
    </g>
    <g id="ytick_11">
     <g id="line2d_15"/>
    </g>
   </g>
   <g id="line2d_16">
    <path d="M 289.061494 229.315385 
L 289.061494 7.2 
" clip-path="url(#p5f2a456c7f)" style="fill: none; stroke-dasharray: 2,3.3; stroke-dashoffset: 0; stroke: #000000; stroke-width: 2"/>
   </g>
   <g id="patch_110">
    <path d="M 256.481399 229.315385 
L 492.671875 229.315385 
" style="fill: none; stroke: #000000; stroke-width: 0.8; stroke-linejoin: miter; stroke-linecap: square"/>
   </g>
  </g>
 </g>
 <defs>
  <clipPath id="p31b2e97d16">
   <rect x="46.271875" y="239.976923" width="188.952381" height="44.423077"/>
  </clipPath>
  <clipPath id="pf230df2dec">
   <rect x="46.271875" y="7.2" width="188.952381" height="222.115385"/>
  </clipPath>
  <clipPath id="p5f2a456c7f">
   <rect x="256.481399" y="7.2" width="236.190476" height="222.115385"/>
  </clipPath>
 </defs>
</svg>
