<?xml version="1.0" encoding="utf-8" standalone="no"?>
<!DOCTYPE svg PUBLIC "-//W3C//DTD SVG 1.1//EN"
  "http://www.w3.org/Graphics/SVG/1.1/DTD/svg11.dtd">
<svg xmlns:xlink="http://www.w3.org/1999/xlink" width="1057.871875pt" height="617.873438pt" viewBox="0 0 1057.871875 617.873438" xmlns="http://www.w3.org/2000/svg" version="1.1">
 <metadata>
  <rdf:RDF xmlns:dc="http://purl.org/dc/elements/1.1/" xmlns:cc="http://creativecommons.org/ns#" xmlns:rdf="http://www.w3.org/1999/02/22-rdf-syntax-ns#">
   <cc:Work>
    <dc:type rdf:resource="http://purl.org/dc/dcmitype/StillImage"/>
    <dc:date>2023-10-05T12:54:49.543651</dc:date>
    <dc:format>image/svg+xml</dc:format>
    <dc:creator>
     <cc:Agent>
      <dc:title>Matplotlib v3.5.2, https://matplotlib.org/</dc:title>
     </cc:Agent>
    </dc:creator>
   </cc:Work>
  </rdf:RDF>
 </metadata>
 <defs>
  <style type="text/css">*{stroke-linejoin: round; stroke-linecap: butt}</style>
 </defs>
 <g id="figure_1">
  <g id="patch_1">
   <path d="M 0 617.873438 
L 1057.871875 617.873438 
L 1057.871875 0 
L 0 0 
z
" style="fill: #ffffff"/>
  </g>
  <g id="axes_1">
   <g id="patch_2">
    <path d="M 46.271875 561.6 
L 843.414732 561.6 
L 843.414732 7.2 
L 46.271875 7.2 
z
" style="fill: #ffffff"/>
   </g>
   <g id="patch_3">
    <path d="M 48.92019 557.2 
L 96.589863 557.2 
L 96.589863 456 
L 48.92019 456 
z
" clip-path="url(#pb812900724)" style="fill: #808080; opacity: 0.2"/>
   </g>
   <g id="patch_4">
    <path d="M 101.886493 557.2 
L 149.556165 557.2 
L 149.556165 456 
L 101.886493 456 
z
" clip-path="url(#pb812900724)" style="fill: #808080; opacity: 0.2"/>
   </g>
   <g id="patch_5">
    <path d="M 154.852796 557.2 
L 202.522468 557.2 
L 202.522468 456 
L 154.852796 456 
z
" clip-path="url(#pb812900724)" style="fill: #808080; opacity: 0.2"/>
   </g>
   <g id="patch_6">
    <path d="M 207.819099 557.2 
L 255.488771 557.2 
L 255.488771 456 
L 207.819099 456 
z
" clip-path="url(#pb812900724)" style="fill: #808080; opacity: 0.2"/>
   </g>
   <g id="patch_7">
    <path d="M 260.785401 553.9 
L 260.785401 456 
L 306.866085 456 
z
" clip-path="url(#pb812900724)" style="fill: #2dbe3d"/>
   </g>
   <g id="patch_8">
    <path d="M 262.37439 557.2 
L 308.455074 557.2 
L 308.455074 459.3 
z
" clip-path="url(#pb812900724)" style="fill: #2dbe3d"/>
   </g>
   <g id="patch_9">
    <path d="M 313.751704 557.2 
L 361.421377 557.2 
L 361.421377 456 
L 313.751704 456 
z
" clip-path="url(#pb812900724)" style="fill: #808080; opacity: 0.2"/>
   </g>
   <g id="patch_10">
    <path d="M 366.718007 553.9 
L 366.718007 456 
L 412.79869 456 
z
" clip-path="url(#pb812900724)" style="fill: #2dbe3d"/>
   </g>
   <g id="patch_11">
    <path d="M 368.306996 557.2 
L 414.387679 557.2 
L 414.387679 459.3 
z
" clip-path="url(#pb812900724)" style="fill: #2dbe3d"/>
   </g>
   <g id="patch_12">
    <path d="M 419.68431 557.2 
L 467.353982 557.2 
L 467.353982 456 
L 419.68431 456 
z
" clip-path="url(#pb812900724)" style="fill: #808080; opacity: 0.2"/>
   </g>
   <g id="patch_13">
    <path d="M 472.650613 557.2 
L 520.320285 557.2 
L 520.320285 456 
L 472.650613 456 
z
" clip-path="url(#pb812900724)" style="fill: #a65628"/>
   </g>
   <g id="patch_14">
    <path d="M 525.616915 557.2 
L 573.286588 557.2 
L 573.286588 456 
L 525.616915 456 
z
" clip-path="url(#pb812900724)" style="fill: #a65628"/>
   </g>
   <g id="patch_15">
    <path d="M 578.583218 557.2 
L 626.252891 557.2 
L 626.252891 456 
L 578.583218 456 
z
" clip-path="url(#pb812900724)" style="fill: #808080; opacity: 0.2"/>
   </g>
   <g id="patch_16">
    <path d="M 631.549521 557.2 
L 679.219193 557.2 
L 679.219193 456 
L 631.549521 456 
z
" clip-path="url(#pb812900724)" style="fill: #808080; opacity: 0.2"/>
   </g>
   <g id="patch_17">
    <path d="M 684.515824 557.2 
L 732.185496 557.2 
L 732.185496 456 
L 684.515824 456 
z
" clip-path="url(#pb812900724)" style="fill: #808080; opacity: 0.2"/>
   </g>
   <g id="patch_18">
    <path d="M 737.482127 557.2 
L 785.151799 557.2 
L 785.151799 456 
L 737.482127 456 
z
" clip-path="url(#pb812900724)" style="fill: #a65628"/>
   </g>
   <g id="patch_19">
    <path d="M 790.448429 557.2 
L 838.118102 557.2 
L 838.118102 456 
L 790.448429 456 
z
" clip-path="url(#pb812900724)" style="fill: #808080; opacity: 0.2"/>
   </g>
   <g id="patch_20">
    <path d="M 48.92019 447.2 
L 96.589863 447.2 
L 96.589863 346 
L 48.92019 346 
z
" clip-path="url(#pb812900724)" style="fill: #a65628"/>
   </g>
   <g id="patch_21">
    <path d="M 101.886493 447.2 
L 149.556165 447.2 
L 149.556165 346 
L 101.886493 346 
z
" clip-path="url(#pb812900724)" style="fill: #808080; opacity: 0.2"/>
   </g>
   <g id="patch_22">
    <path d="M 154.852796 447.2 
L 202.522468 447.2 
L 202.522468 346 
L 154.852796 346 
z
" clip-path="url(#pb812900724)" style="fill: #808080; opacity: 0.2"/>
   </g>
   <g id="patch_23">
    <path d="M 207.819099 447.2 
L 255.488771 447.2 
L 255.488771 346 
L 207.819099 346 
z
" clip-path="url(#pb812900724)" style="fill: #808080; opacity: 0.2"/>
   </g>
   <g id="patch_24">
    <path d="M 260.785401 447.2 
L 308.455074 447.2 
L 308.455074 346 
L 260.785401 346 
z
" clip-path="url(#pb812900724)" style="fill: #808080; opacity: 0.2"/>
   </g>
   <g id="patch_25">
    <path d="M 313.751704 447.2 
L 361.421377 447.2 
L 361.421377 346 
L 313.751704 346 
z
" clip-path="url(#pb812900724)" style="fill: #808080; opacity: 0.2"/>
   </g>
   <g id="patch_26">
    <path d="M 366.718007 447.2 
L 414.387679 447.2 
L 414.387679 346 
L 366.718007 346 
z
" clip-path="url(#pb812900724)"/>
   </g>
   <g id="patch_27">
    <path d="M 419.68431 447.2 
L 467.353982 447.2 
L 467.353982 346 
L 419.68431 346 
z
" clip-path="url(#pb812900724)" style="fill: #808080; opacity: 0.2"/>
   </g>
   <g id="patch_28">
    <path d="M 472.650613 447.2 
L 520.320285 447.2 
L 520.320285 346 
L 472.650613 346 
z
" clip-path="url(#pb812900724)" style="fill: #808080; opacity: 0.2"/>
   </g>
   <g id="patch_29">
    <path d="M 525.616915 447.2 
L 573.286588 447.2 
L 573.286588 346 
L 525.616915 346 
z
" clip-path="url(#pb812900724)" style="fill: #808080; opacity: 0.2"/>
   </g>
   <g id="patch_30">
    <path d="M 578.583218 447.2 
L 626.252891 447.2 
L 626.252891 346 
L 578.583218 346 
z
" clip-path="url(#pb812900724)"/>
   </g>
   <g id="patch_31">
    <path d="M 631.549521 447.2 
L 679.219193 447.2 
L 679.219193 346 
L 631.549521 346 
z
" clip-path="url(#pb812900724)" style="fill: #808080; opacity: 0.2"/>
   </g>
   <g id="patch_32">
    <path d="M 684.515824 447.2 
L 732.185496 447.2 
L 732.185496 346 
L 684.515824 346 
z
" clip-path="url(#pb812900724)" style="fill: #2dbe3d"/>
   </g>
   <g id="patch_33">
    <path d="M 737.482127 447.2 
L 785.151799 447.2 
L 785.151799 346 
L 737.482127 346 
z
" clip-path="url(#pb812900724)" style="fill: #808080; opacity: 0.2"/>
   </g>
   <g id="patch_34">
    <path d="M 790.448429 447.2 
L 838.118102 447.2 
L 838.118102 346 
L 790.448429 346 
z
" clip-path="url(#pb812900724)" style="fill: #808080; opacity: 0.2"/>
   </g>
   <g id="patch_35">
    <path d="M 48.92019 337.2 
L 96.589863 337.2 
L 96.589863 236 
L 48.92019 236 
z
" clip-path="url(#pb812900724)"/>
   </g>
   <g id="patch_36">
    <path d="M 101.886493 337.2 
L 149.556165 337.2 
L 149.556165 236 
L 101.886493 236 
z
" clip-path="url(#pb812900724)" style="fill: #808080; opacity: 0.2"/>
   </g>
   <g id="patch_37">
    <path d="M 154.852796 337.2 
L 202.522468 337.2 
L 202.522468 236 
L 154.852796 236 
z
" clip-path="url(#pb812900724)" style="fill: #808080; opacity: 0.2"/>
   </g>
   <g id="patch_38">
    <path d="M 207.819099 337.2 
L 255.488771 337.2 
L 255.488771 236 
L 207.819099 236 
z
" clip-path="url(#pb812900724)" style="fill: #808080; opacity: 0.2"/>
   </g>
   <g id="patch_39">
    <path d="M 260.785401 337.2 
L 308.455074 337.2 
L 308.455074 236 
L 260.785401 236 
z
" clip-path="url(#pb812900724)" style="fill: #808080; opacity: 0.2"/>
   </g>
   <g id="patch_40">
    <path d="M 313.751704 337.2 
L 361.421377 337.2 
L 361.421377 236 
L 313.751704 236 
z
" clip-path="url(#pb812900724)" style="fill: #808080; opacity: 0.2"/>
   </g>
   <g id="patch_41">
    <path d="M 366.718007 337.2 
L 414.387679 337.2 
L 414.387679 236 
L 366.718007 236 
z
" clip-path="url(#pb812900724)" style="fill: #808080; opacity: 0.2"/>
   </g>
   <g id="patch_42">
    <path d="M 419.68431 337.2 
L 467.353982 337.2 
L 467.353982 236 
L 419.68431 236 
z
" clip-path="url(#pb812900724)" style="fill: #808080; opacity: 0.2"/>
   </g>
   <g id="patch_43">
    <path d="M 472.650613 337.2 
L 520.320285 337.2 
L 520.320285 236 
L 472.650613 236 
z
" clip-path="url(#pb812900724)" style="fill: #808080; opacity: 0.2"/>
   </g>
   <g id="patch_44">
    <path d="M 525.616915 337.2 
L 573.286588 337.2 
L 573.286588 236 
L 525.616915 236 
z
" clip-path="url(#pb812900724)" style="fill: #808080; opacity: 0.2"/>
   </g>
   <g id="patch_45">
    <path d="M 578.583218 337.2 
L 626.252891 337.2 
L 626.252891 236 
L 578.583218 236 
z
" clip-path="url(#pb812900724)"/>
   </g>
   <g id="patch_46">
    <path d="M 631.549521 337.2 
L 679.219193 337.2 
L 679.219193 236 
L 631.549521 236 
z
" clip-path="url(#pb812900724)"/>
   </g>
   <g id="patch_47">
    <path d="M 684.515824 337.2 
L 732.185496 337.2 
L 732.185496 236 
L 684.515824 236 
z
" clip-path="url(#pb812900724)" style="fill: #808080; opacity: 0.2"/>
   </g>
   <g id="patch_48">
    <path d="M 737.482127 337.2 
L 785.151799 337.2 
L 785.151799 236 
L 737.482127 236 
z
" clip-path="url(#pb812900724)" style="fill: #808080; opacity: 0.2"/>
   </g>
   <g id="patch_49">
    <path d="M 790.448429 337.2 
L 838.118102 337.2 
L 838.118102 236 
L 790.448429 236 
z
" clip-path="url(#pb812900724)" style="fill: #808080; opacity: 0.2"/>
   </g>
   <g id="patch_50">
    <path d="M 48.92019 223.9 
L 48.92019 126 
L 95.000874 126 
z
" clip-path="url(#pb812900724)"/>
   </g>
   <g id="patch_51">
    <path d="M 50.509179 227.2 
L 96.589863 227.2 
L 96.589863 129.3 
z
" clip-path="url(#pb812900724)"/>
   </g>
   <g id="patch_52">
    <path d="M 101.886493 227.2 
L 149.556165 227.2 
L 149.556165 126 
L 101.886493 126 
z
" clip-path="url(#pb812900724)" style="fill: #a65628"/>
   </g>
   <g id="patch_53">
    <path d="M 154.852796 227.2 
L 202.522468 227.2 
L 202.522468 126 
L 154.852796 126 
z
" clip-path="url(#pb812900724)" style="fill: #808080; opacity: 0.2"/>
   </g>
   <g id="patch_54">
    <path d="M 207.819099 227.2 
L 255.488771 227.2 
L 255.488771 126 
L 207.819099 126 
z
" clip-path="url(#pb812900724)"/>
   </g>
   <g id="patch_55">
    <path d="M 260.785401 227.2 
L 308.455074 227.2 
L 308.455074 126 
L 260.785401 126 
z
" clip-path="url(#pb812900724)"/>
   </g>
   <g id="patch_56">
    <path d="M 313.751704 227.2 
L 361.421377 227.2 
L 361.421377 126 
L 313.751704 126 
z
" clip-path="url(#pb812900724)" style="fill: #808080; opacity: 0.2"/>
   </g>
   <g id="patch_57">
    <path d="M 366.718007 227.2 
L 414.387679 227.2 
L 414.387679 126 
L 366.718007 126 
z
" clip-path="url(#pb812900724)"/>
   </g>
   <g id="patch_58">
    <path d="M 419.68431 223.9 
L 419.68431 126 
L 465.764993 126 
z
" clip-path="url(#pb812900724)"/>
   </g>
   <g id="patch_59">
    <path d="M 421.273299 227.2 
L 467.353982 227.2 
L 467.353982 129.3 
z
" clip-path="url(#pb812900724)"/>
   </g>
   <g id="patch_60">
    <path d="M 472.650613 227.2 
L 520.320285 227.2 
L 520.320285 126 
L 472.650613 126 
z
" clip-path="url(#pb812900724)" style="fill: #808080; opacity: 0.2"/>
   </g>
   <g id="patch_61">
    <path d="M 525.616915 227.2 
L 573.286588 227.2 
L 573.286588 126 
L 525.616915 126 
z
" clip-path="url(#pb812900724)" style="fill: #808080; opacity: 0.2"/>
   </g>
   <g id="patch_62">
    <path d="M 578.583218 227.2 
L 626.252891 227.2 
L 626.252891 126 
L 578.583218 126 
z
" clip-path="url(#pb812900724)" style="fill: #808080; opacity: 0.2"/>
   </g>
   <g id="patch_63">
    <path d="M 631.549521 227.2 
L 679.219193 227.2 
L 679.219193 126 
L 631.549521 126 
z
" clip-path="url(#pb812900724)" style="fill: #808080; opacity: 0.2"/>
   </g>
   <g id="patch_64">
    <path d="M 684.515824 227.2 
L 732.185496 227.2 
L 732.185496 126 
L 684.515824 126 
z
" clip-path="url(#pb812900724)" style="fill: #808080; opacity: 0.2"/>
   </g>
   <g id="patch_65">
    <path d="M 737.482127 227.2 
L 785.151799 227.2 
L 785.151799 126 
L 737.482127 126 
z
" clip-path="url(#pb812900724)" style="fill: #808080; opacity: 0.2"/>
   </g>
   <g id="patch_66">
    <path d="M 790.448429 227.2 
L 838.118102 227.2 
L 838.118102 126 
L 790.448429 126 
z
" clip-path="url(#pb812900724)" style="fill: #808080; opacity: 0.2"/>
   </g>
   <g id="patch_67">
    <path d="M 48.92019 117.2 
L 96.589863 117.2 
L 96.589863 16 
L 48.92019 16 
z
" clip-path="url(#pb812900724)" style="fill: #a65628"/>
   </g>
   <g id="patch_68">
    <path d="M 101.886493 113.9 
L 101.886493 16 
L 147.967176 16 
z
" clip-path="url(#pb812900724)"/>
   </g>
   <g id="patch_69">
    <path d="M 103.475482 117.2 
L 149.556165 117.2 
L 149.556165 19.3 
z
" clip-path="url(#pb812900724)"/>
   </g>
   <g id="patch_70">
    <path d="M 154.852796 117.2 
L 202.522468 117.2 
L 202.522468 16 
L 154.852796 16 
z
" clip-path="url(#pb812900724)"/>
   </g>
   <g id="patch_71">
    <path d="M 207.819099 117.2 
L 255.488771 117.2 
L 255.488771 16 
L 207.819099 16 
z
" clip-path="url(#pb812900724)"/>
   </g>
   <g id="patch_72">
    <path d="M 260.785401 113.9 
L 260.785401 16 
L 306.866085 16 
z
" clip-path="url(#pb812900724)"/>
   </g>
   <g id="patch_73">
    <path d="M 262.37439 117.2 
L 308.455074 117.2 
L 308.455074 19.3 
z
" clip-path="url(#pb812900724)"/>
   </g>
   <g id="patch_74">
    <path d="M 313.751704 117.2 
L 361.421377 117.2 
L 361.421377 16 
L 313.751704 16 
z
" clip-path="url(#pb812900724)"/>
   </g>
   <g id="patch_75">
    <path d="M 366.718007 113.9 
L 366.718007 16 
L 412.79869 16 
z
" clip-path="url(#pb812900724)"/>
   </g>
   <g id="patch_76">
    <path d="M 368.306996 117.2 
L 414.387679 117.2 
L 414.387679 19.3 
z
" clip-path="url(#pb812900724)"/>
   </g>
   <g id="patch_77">
    <path d="M 419.68431 117.2 
L 467.353982 117.2 
L 467.353982 16 
L 419.68431 16 
z
" clip-path="url(#pb812900724)"/>
   </g>
   <g id="patch_78">
    <path d="M 472.650613 117.2 
L 520.320285 117.2 
L 520.320285 16 
L 472.650613 16 
z
" clip-path="url(#pb812900724)"/>
   </g>
   <g id="patch_79">
    <path d="M 525.616915 117.2 
L 573.286588 117.2 
L 573.286588 16 
L 525.616915 16 
z
" clip-path="url(#pb812900724)" style="fill: #a65628"/>
   </g>
   <g id="patch_80">
    <path d="M 578.583218 117.2 
L 626.252891 117.2 
L 626.252891 16 
L 578.583218 16 
z
" clip-path="url(#pb812900724)" style="fill: #808080; opacity: 0.2"/>
   </g>
   <g id="patch_81">
    <path d="M 631.549521 117.2 
L 679.219193 117.2 
L 679.219193 16 
L 631.549521 16 
z
" clip-path="url(#pb812900724)" style="fill: #808080; opacity: 0.2"/>
   </g>
   <g id="patch_82">
    <path d="M 684.515824 117.2 
L 732.185496 117.2 
L 732.185496 16 
L 684.515824 16 
z
" clip-path="url(#pb812900724)" style="fill: #808080; opacity: 0.2"/>
   </g>
   <g id="patch_83">
    <path d="M 737.482127 117.2 
L 785.151799 117.2 
L 785.151799 16 
L 737.482127 16 
z
" clip-path="url(#pb812900724)" style="fill: #808080; opacity: 0.2"/>
   </g>
   <g id="patch_84">
    <path d="M 790.448429 117.2 
L 838.118102 117.2 
L 838.118102 16 
L 790.448429 16 
z
" clip-path="url(#pb812900724)" style="fill: #808080; opacity: 0.2"/>
   </g>
   <g id="matplotlib.axis_1">
    <g id="xtick_1">
     <g id="text_1">
      <text style="font: 10px 'arial'" transform="translate(75.340183 610.673438)rotate(-90)">MGH1002</text>
     </g>
    </g>
    <g id="xtick_2">
     <g id="text_2">
      <text style="font: 10px 'arial'" transform="translate(128.306485 610.673438)rotate(-90)">MGH1035</text>
     </g>
    </g>
    <g id="xtick_3">
     <g id="text_3">
      <text style="font: 10px 'arial'" transform="translate(181.272788 610.673438)rotate(-90)">MGH1078</text>
     </g>
    </g>
    <g id="xtick_4">
     <g id="text_4">
      <text style="font: 10px 'arial'" transform="translate(234.239091 609.198438)rotate(-90)">MGH1113</text>
     </g>
    </g>
    <g id="xtick_5">
     <g id="text_5">
      <text style="font: 10px 'arial'" transform="translate(287.205394 610.673438)rotate(-90)">MGH1326</text>
     </g>
    </g>
    <g id="xtick_6">
     <g id="text_6">
      <text style="font: 10px 'arial'" transform="translate(340.171697 610.673438)rotate(-90)">MGH1534</text>
     </g>
    </g>
    <g id="xtick_7">
     <g id="text_7">
      <text style="font: 10px 'arial'" transform="translate(393.137999 610.673438)rotate(-90)">MGH1558</text>
     </g>
    </g>
    <g id="xtick_8">
     <g id="text_8">
      <text style="font: 10px 'arial'" transform="translate(446.104302 610.673438)rotate(-90)">MGH1644</text>
     </g>
    </g>
    <g id="xtick_9">
     <g id="text_9">
      <text style="font: 10px 'arial'" transform="translate(499.070605 610.673438)rotate(-90)">MGH2389</text>
     </g>
    </g>
    <g id="xtick_10">
     <g id="text_10">
      <text style="font: 10px 'arial'" transform="translate(552.036908 610.673438)rotate(-90)">MGH2542</text>
     </g>
    </g>
    <g id="xtick_11">
     <g id="text_11">
      <text style="font: 10px 'arial'" transform="translate(605.003211 610.673438)rotate(-90)">MGH1598</text>
     </g>
    </g>
    <g id="xtick_12">
     <g id="text_12">
      <text style="font: 10px 'arial'" transform="translate(657.969513 610.673438)rotate(-90)">MGH2974</text>
     </g>
    </g>
    <g id="xtick_13">
     <g id="text_13">
      <text style="font: 10px 'arial'" transform="translate(710.935816 610.673438)rotate(-90)">MGH1045</text>
     </g>
    </g>
    <g id="xtick_14">
     <g id="text_14">
      <text style="font: 10px 'arial'" transform="translate(763.902119 610.673438)rotate(-90)">MGH1547</text>
     </g>
    </g>
    <g id="xtick_15">
     <g id="text_15">
      <text style="font: 10px 'arial'" transform="translate(816.868422 610.673438)rotate(-90)">MGH2819</text>
     </g>
    </g>
   </g>
   <g id="matplotlib.axis_2">
    <g id="ytick_1">
     <g id="line2d_1"/>
     <g id="text_16">
      <text style="font: 10px 'arial'; text-anchor: end" x="42.771875" y="510.178906" transform="rotate(-0, 42.771875, 510.178906)">KMT2C</text>
     </g>
    </g>
    <g id="ytick_2">
     <g id="line2d_2"/>
     <g id="text_17">
      <text style="font: 10px 'arial'; text-anchor: end" x="42.771875" y="400.178906" transform="rotate(-0, 42.771875, 400.178906)">TP53</text>
     </g>
    </g>
    <g id="ytick_3">
     <g id="line2d_3"/>
     <g id="text_18">
      <text style="font: 10px 'arial'; text-anchor: end" x="42.771875" y="290.178906" transform="rotate(-0, 42.771875, 290.178906)">KRAS</text>
     </g>
    </g>
    <g id="ytick_4">
     <g id="line2d_4"/>
     <g id="text_19">
      <text style="font: 10px 'arial'; text-anchor: end" x="42.771875" y="180.178906" transform="rotate(-0, 42.771875, 180.178906)">ESR1</text>
     </g>
    </g>
    <g id="ytick_5">
     <g id="line2d_5"/>
     <g id="text_20">
      <text style="font: 10px 'arial'; text-anchor: end" x="42.771875" y="70.178906" transform="rotate(-0, 42.771875, 70.178906)">PIK3CA</text>
     </g>
    </g>
   </g>
   <g id="legend_1">
    <g id="text_21">
     <text style="font: 10px 'arial'; text-anchor: start" x="852.414732" y="23.357813" transform="rotate(-0, 852.414732, 23.357813)">Mutation type</text>
    </g>
    <g id="patch_85">
     <path d="M 852.414732 37.620313 
L 872.414732 37.620313 
L 872.414732 30.620313 
L 852.414732 30.620313 
z
" style="fill: #2dbe3d"/>
    </g>
    <g id="text_22">
     <text style="font: 10px 'arial'; text-anchor: start" x="880.414732" y="37.620313" transform="rotate(-0, 880.414732, 37.620313)">LOF</text>
    </g>
    <g id="patch_86">
     <path d="M 852.414732 51.765625 
L 872.414732 51.765625 
L 872.414732 44.765625 
L 852.414732 44.765625 
z
"/>
    </g>
    <g id="text_23">
     <text style="font: 10px 'arial'; text-anchor: start" x="880.414732" y="51.765625" transform="rotate(-0, 880.414732, 51.765625)">Missense_Mutation</text>
    </g>
    <g id="patch_87">
     <path d="M 852.414732 65.910938 
L 872.414732 65.910938 
L 872.414732 58.910938 
L 852.414732 58.910938 
z
" style="fill: #a65628"/>
    </g>
    <g id="text_24">
     <text style="font: 10px 'arial'; text-anchor: start" x="880.414732" y="65.910938" transform="rotate(-0, 880.414732, 65.910938)">Multiple</text>
    </g>
   </g>
  </g>
  <g id="axes_2">
   <g id="patch_88">
    <path d="M 891.243304 561.6 
L 1050.671875 561.6 
L 1050.671875 7.2 
L 891.243304 7.2 
z
" style="fill: #ffffff"/>
   </g>
   <g id="patch_89">
    <path d="M 891.243304 550.6 
L 891.243304 550.6 
L 891.243304 462.6 
L 891.243304 462.6 
z
" clip-path="url(#pac784d3637)" style="fill: #a9a9a9; opacity: 0.5"/>
   </g>
   <g id="patch_90">
    <path d="M 891.243304 440.6 
L 921.589525 440.6 
L 921.589525 352.6 
L 891.243304 352.6 
z
" clip-path="url(#pac784d3637)" style="fill: #a9a9a9; opacity: 0.5"/>
   </g>
   <g id="patch_91">
    <path d="M 891.243304 330.6 
L 916.98679 330.6 
L 916.98679 242.6 
L 891.243304 242.6 
z
" clip-path="url(#pac784d3637)" style="fill: #a9a9a9; opacity: 0.5"/>
   </g>
   <g id="patch_92">
    <path d="M 891.243304 220.6 
L 992.838456 220.6 
L 992.838456 132.6 
L 891.243304 132.6 
z
" clip-path="url(#pac784d3637)" style="fill: #a9a9a9; opacity: 0.5"/>
   </g>
   <g id="patch_93">
    <path d="M 891.243304 110.6 
L 1043.080038 110.6 
L 1043.080038 22.6 
L 891.243304 22.6 
z
" clip-path="url(#pac784d3637)" style="fill: #a9a9a9; opacity: 0.5"/>
   </g>
   <g id="matplotlib.axis_3">
    <g id="xtick_16">
     <g id="line2d_6">
      <defs>
       <path id="m8e02d49343" d="M 0 0 
L 0 3.5 
" style="stroke: #000000; stroke-width: 0.8"/>
      </defs>
      <g>
       <use xlink:href="#m8e02d49343" x="891.243304" y="561.6" style="stroke: #000000; stroke-width: 0.8"/>
      </g>
     </g>
     <g id="text_25">
      <text style="font: 10px 'arial'; text-anchor: middle" x="891.243304" y="575.757813" transform="rotate(-0, 891.243304, 575.757813)">0</text>
     </g>
    </g>
    <g id="xtick_17">
     <g id="line2d_7">
      <g>
       <use xlink:href="#m8e02d49343" x="935.226432" y="561.6" style="stroke: #000000; stroke-width: 0.8"/>
      </g>
     </g>
     <g id="text_26">
      <text style="font: 10px 'arial'; text-anchor: middle" x="935.226432" y="575.757813" transform="rotate(-0, 935.226432, 575.757813)">2</text>
     </g>
    </g>
    <g id="xtick_18">
     <g id="line2d_8">
      <g>
       <use xlink:href="#m8e02d49343" x="979.209561" y="561.6" style="stroke: #000000; stroke-width: 0.8"/>
      </g>
     </g>
     <g id="text_27">
      <text style="font: 10px 'arial'; text-anchor: middle" x="979.209561" y="575.757813" transform="rotate(-0, 979.209561, 575.757813)">4</text>
     </g>
    </g>
    <g id="xtick_19">
     <g id="line2d_9">
      <g>
       <use xlink:href="#m8e02d49343" x="1023.19269" y="561.6" style="stroke: #000000; stroke-width: 0.8"/>
      </g>
     </g>
     <g id="text_28">
      <text style="font: 10px 'arial'; text-anchor: middle" x="1023.19269" y="575.757813" transform="rotate(-0, 1023.19269, 575.757813)">6</text>
     </g>
    </g>
    <g id="text_29">
     <text style="font: 10px 'arial'; text-anchor: middle" x="970.957589" y="589.03125" transform="rotate(-0, 970.957589, 589.03125)">-log(Q)</text>
    </g>
   </g>
   <g id="matplotlib.axis_4">
    <g id="ytick_6">
     <g id="line2d_10"/>
    </g>
    <g id="ytick_7">
     <g id="line2d_11"/>
    </g>
    <g id="ytick_8">
     <g id="line2d_12"/>
    </g>
    <g id="ytick_9">
     <g id="line2d_13"/>
    </g>
    <g id="ytick_10">
     <g id="line2d_14"/>
    </g>
   </g>
   <g id="line2d_15">
    <path d="M 913.234868 561.6 
L 913.234868 7.2 
" clip-path="url(#pac784d3637)" style="fill: none; stroke-dasharray: 2,3.3; stroke-dashoffset: 0; stroke: #000000; stroke-width: 2"/>
   </g>
   <g id="patch_94">
    <path d="M 891.243304 561.6 
L 1050.671875 561.6 
" style="fill: none; stroke: #000000; stroke-width: 0.8; stroke-linejoin: miter; stroke-linecap: square"/>
   </g>
  </g>
 </g>
 <defs>
  <clipPath id="pb812900724">
   <rect x="46.271875" y="7.2" width="797.142857" height="554.4"/>
  </clipPath>
  <clipPath id="pac784d3637">
   <rect x="891.243304" y="7.2" width="159.428571" height="554.4"/>
  </clipPath>
 </defs>
</svg>
